<svg width="253" height="39" viewBox="0 0 253 39" fill="none" xmlns="http://www.w3.org/2000/svg">
<path fill-rule="evenodd" clip-rule="evenodd" d="M8.57356 26.244H15.7265L19.2856 32.4293L8.57356 26.244Z" fill="#DDDDDD"/>
<path fill-rule="evenodd" clip-rule="evenodd" d="M30.3709 25.0637L22.6474 38.5012H7.73171L0.65564 26.244H8.57356L19.2856 32.4293L1.12132 0.865234H25.7897L25.8806 0.898796L25.847 0.865234H25.7897L25.8806 0.898796L26.6511 1.66933C26.5308 1.71688 26.412 1.76583 26.2931 1.81757C15.5685 6.45477 17.6913 22.45 29.3319 24.0247L30.3709 25.0637Z" fill="#DDDDDD"/>
<path d="M47.0584 7.46863V23.3674C47.0584 28.1584 45.4237 32.0377 38.3881 32.0377H33.151V25.9084C35.5465 28.0508 39.5391 30.2645 42.1527 30.2645C43.1316 30.2645 43.9315 29.9736 44.3678 29.2115C44.565 28.8828 44.6658 28.5053 44.6587 28.1221C44.6587 26.0174 41.3179 24.4204 41.3179 24.4204V7.46863H47.0584Z" fill="#DDDDDD"/>
<path d="M73.1895 19.7007C73.1895 28.6311 68.1804 32.2251 62.0091 32.2251C55.8028 32.2251 50.7922 28.6311 50.7922 19.7007C50.7922 10.9885 55.8028 7.17776 62.0091 7.17776C68.1748 7.17776 73.1895 10.7689 73.1895 19.7007ZM67.1637 19.7007C67.1637 11.3884 65.4576 8.01262 62.0091 8.01262C58.5605 8.01262 56.8181 11.5702 56.8181 19.7007C56.8181 28.0144 58.5619 31.3539 62.0091 31.3539C65.4562 31.3539 67.1637 28.0144 67.1637 19.7007Z" fill="#DDDDDD"/>
<path d="M93.4864 26.3796C94.7127 26.3787 95.9331 26.2079 97.1125 25.872V32.0433H93.5563C84.9531 32.0433 84.3001 19.0477 84.3001 19.0477C84.3001 19.0477 91.2321 18.5037 91.2321 13.2036C91.2321 10.9521 90.47 8.33986 83.8204 8.33986H82.6583V32.0433H76.9247V7.46863H86.0355C90.7902 7.46863 97.1069 7.64903 97.1069 13.0945C97.1069 18.7204 85.2021 19.7734 85.2021 19.7734C86.5138 25.2553 90.47 26.3796 93.4864 26.3796Z" fill="#DDDDDD"/>
<path d="M121.835 19.7007C121.835 28.6311 116.825 32.2251 110.619 32.2251C107.387 32.2251 106.481 31.1357 104.411 31.1357C102.957 31.1263 101.52 31.4361 100.199 32.0433V7.46863H110.907C111.795 7.46847 112.682 7.54332 113.558 7.69238C118.385 8.59297 121.835 12.1142 121.835 19.7007ZM110.619 31.3539C114.066 31.3539 115.773 28.0144 115.773 19.7007C115.773 11.387 114.183 8.33986 110 8.33986H105.972V26.2706C105.972 30.9903 109.093 31.3539 110.219 31.3539H110.619Z" fill="#DDDDDD"/>
<path d="M130.694 32.0433H124.922V7.46863H130.694V32.0433Z" fill="#DDDDDD"/>
<path d="M152.837 13.2036C152.837 13.2036 149.498 8.33986 142.455 8.33986L149.534 17.0507L149.571 17.087C141.293 17.087 138.608 19.5916 138.608 22.278C138.614 22.5094 138.639 22.7399 138.681 22.9675C139.189 26.1629 143.036 26.5614 145.904 26.6034H146.013C149.389 26.6034 152.837 25.0064 152.837 25.0064V31.4657C150.424 32.0519 147.952 32.3565 145.469 32.3733H145.033C139.587 32.302 134.179 30.5945 133.888 24.9686V24.5701C133.888 19.9958 138.716 18.1443 142.279 17.273L134.321 7.46863H152.833L152.837 13.2036Z" fill="#DDDDDD"/>
<path d="M161.66 10.3354C161.66 10.9885 161.478 15.0901 156.795 16.4703C157.361 16.0898 157.843 15.597 158.211 15.0225C158.578 14.4481 158.824 13.8043 158.933 13.1309H158.793C158.226 13.1309 157.671 12.9627 157.2 12.6475C156.728 12.3323 156.36 11.8844 156.143 11.3603C155.926 10.8362 155.869 10.2595 155.98 9.70315C156.091 9.14677 156.364 8.63571 156.765 8.23459C157.166 7.83346 157.677 7.5603 158.234 7.44963C158.79 7.33896 159.367 7.39576 159.891 7.61284C160.415 7.82993 160.863 8.19755 161.178 8.66922C161.493 9.14089 161.661 9.69543 161.661 10.2627L161.66 10.3354Z" fill="#DDDDDD"/>
<path d="M173.821 32.2251C170.481 32.2251 168.484 31.9342 164.963 31.3539V24.1659C166.524 26.9977 169.61 31.3539 173.821 31.3539H173.93C176.471 31.3175 179.192 29.9736 179.192 27.3599C179.198 27.1779 179.186 26.9957 179.157 26.8159C178.903 24.9644 177.631 24.2386 176.398 23.3311L167.759 17.3779C166.234 16.3249 164.962 14.5461 164.962 12.6946C164.962 7.46863 172.15 7.17776 173.819 7.17776C177.013 7.17776 179.191 7.43227 182.459 8.15666V14.6538C179.845 10.5522 177.122 8.01122 173.819 8.01122H173.747C172.113 8.04758 170.08 8.55521 170.08 10.5522C170.08 12.331 171.315 12.875 172.295 13.5644L180.788 19.4098C182.857 20.8251 184.129 22.4221 184.129 25.2175C184.13 30.4463 177.522 32.2251 173.821 32.2251Z" fill="#DDDDDD"/>
<path d="M196.459 17.4506C198.24 17.4506 199.675 16.1753 199.675 16.1753C198.76 17.5807 197.24 18.203 195.524 18.203C192.746 18.203 190.475 16.585 190.475 12.5645C190.475 8.64891 192.746 6.92604 195.524 6.92604C197.682 6.92604 199.528 7.88956 200.247 10.211L197.78 10.8151C197.568 8.34825 196.815 7.30222 195.524 7.30222C193.972 7.30222 193.188 8.90342 193.188 12.5645C193.188 16.3067 194.364 17.0087 195.524 17.336C195.829 17.4149 196.143 17.4535 196.459 17.4506Z" fill="#DDDDDD"/>
<path d="M205.822 10.4389C206.251 10.4424 206.678 10.4864 207.098 10.5704V13.1686C207.098 13.1686 206.231 11.3059 205.038 11.3059C204.961 11.3034 204.884 11.3086 204.809 11.3213C203.845 11.5339 203.42 12.7114 203.42 14.2958V18.1205H200.838V10.5214H203.42V12.2541C203.681 11.3059 204.188 10.8808 204.744 10.6193C205.089 10.4904 205.455 10.4291 205.822 10.4389Z" fill="#DDDDDD"/>
<path d="M213.126 17.4506C214.712 17.4506 215.775 16.3389 215.775 16.3389C215.203 17.4674 214.026 18.2184 212.031 18.2184C209.058 18.2184 207.864 16.4703 207.864 14.3126C207.864 12.1548 209.123 10.4067 212.031 10.4067C214.793 10.4067 216.052 11.945 216.199 13.921V14.3126H210.465C210.465 16.2578 211.233 16.9934 212.033 17.2702C212.385 17.3899 212.755 17.4509 213.126 17.4506ZM213.612 13.921C213.563 12.1562 213.154 10.7829 212.026 10.7829C210.897 10.7829 210.513 12.1562 210.464 13.921H213.612Z" fill="#DDDDDD"/>
<path d="M225.76 10.5214V18.1205H223.16V16.4046C222.688 17.4996 221.788 18.2226 220.383 18.2226C218.225 18.2226 217.213 16.4745 217.213 14.3168C217.213 12.159 218.159 10.4109 220.383 10.4109C221.444 10.4109 222.099 10.8682 222.769 11.5716C222.857 11.6707 222.964 11.7508 223.085 11.8071C223.205 11.8633 223.335 11.8946 223.468 11.8989C223.625 11.9034 223.779 11.8573 223.908 11.7674L225.76 10.5214ZM223.16 14.3126C223.16 12.8092 222.654 11.5017 221.482 11.3213C221.429 11.3086 221.373 11.3034 221.318 11.3059C220.321 11.3059 219.815 12.8904 219.815 14.3126C219.815 15.7669 220.289 17.2493 221.367 17.2493H221.482C222.658 17.1514 223.16 15.8271 223.16 14.3237V14.3126Z" fill="#DDDDDD"/>
<path d="M231.822 10.9088H230.187V18.1163H227.606V10.9088H226.413V10.5172H227.606V8.78875L230.187 7.04071V10.5214H231.822V10.9088Z" fill="#DDDDDD"/>
<path d="M232.59 8.34825C232.588 8.09131 232.663 7.83965 232.804 7.62509C232.945 7.41054 233.147 7.24272 233.384 7.14286C233.621 7.043 233.882 7.01559 234.134 7.06409C234.387 7.11259 234.619 7.23483 234.802 7.41534C234.984 7.59585 235.11 7.82652 235.161 8.0782C235.213 8.32988 235.189 8.59125 235.092 8.82927C234.996 9.06729 234.83 9.27126 234.618 9.41539C234.405 9.55952 234.154 9.63733 233.897 9.639C233.554 9.6383 233.224 9.50262 232.979 9.26118C232.735 9.01974 232.595 8.69188 232.59 8.34825ZM232.59 10.5214H235.188V18.1205H232.59V10.5214Z" fill="#DDDDDD"/>
<path d="M244.356 10.5214L241.48 18.1205H238.881L236.022 10.5214H238.783L241.365 17.3528L242.344 14.7377L242.361 14.7209C242.589 14.1372 242.711 13.5172 242.72 12.8904C242.72 11.2122 241.657 10.5214 241.657 10.5214H244.356Z" fill="#DDDDDD"/>
<path d="M249.928 17.4506C251.513 17.4506 252.575 16.3389 252.575 16.3389C252.003 17.4674 250.827 18.2184 248.833 18.2184C245.858 18.2184 244.665 16.4703 244.665 14.3126C244.665 12.1548 245.924 10.4067 248.833 10.4067C251.595 10.4067 252.853 11.945 253 13.921V14.3126H247.266C247.266 16.2578 248.036 16.9934 248.835 17.2702C249.187 17.3898 249.556 17.4507 249.928 17.4506ZM250.425 13.921C250.377 12.1562 249.968 10.7829 248.84 10.7829C247.711 10.7829 247.314 12.1562 247.264 13.921H250.425Z" fill="#DDDDDD"/>
<path d="M191.894 25.3252C191.793 25.5859 191.737 25.8622 191.73 26.1419C191.73 26.7558 192.112 27.1502 193.038 27.1642C193.407 27.1574 193.774 27.1024 194.129 27.0005V29.3163H193.038C191.69 29.3163 190.791 28.6898 190.791 27.5865C190.793 27.3705 190.82 27.1556 190.872 26.946C190.915 26.7919 190.969 26.6414 191.035 26.4957L192.993 21.8235C193.104 21.5505 193.164 21.2596 193.171 20.9649C193.169 20.6683 193.118 20.374 193.021 20.0937H195.459L198.593 29.3163H196.154L193.497 21.4963L191.894 25.3252Z" fill="#DDDDDD"/>
<path d="M206.09 23.0094V29.0576C206.09 31.0462 204.851 32.2321 202.917 32.2321H200.708V30.0799C201.334 30.8714 202.176 31.4629 203.133 31.7818C203.208 31.8091 203.286 31.8233 203.365 31.8237C203.665 31.8237 203.937 31.6056 203.937 31.1427V27.9137C203.543 28.8255 202.779 29.4254 201.608 29.4254C199.823 29.4254 198.979 27.9683 198.979 26.1699C198.979 24.3715 199.755 22.9129 201.608 22.9129C202.493 22.9129 203.052 23.2947 203.598 23.8806C203.671 23.9652 203.76 24.0338 203.861 24.0819C203.962 24.13 204.072 24.1567 204.183 24.1603C204.315 24.1639 204.443 24.1257 204.551 24.0512L206.09 23.0094ZM202.535 28.6213C203.501 28.5262 203.933 27.4229 203.933 26.1699V26.1517C203.933 24.9113 203.497 23.8219 202.535 23.6723C202.489 23.6604 202.442 23.6557 202.395 23.6583C201.556 23.6583 201.128 24.9798 201.128 26.1657C201.128 27.3781 201.524 28.6171 202.437 28.6171L202.535 28.6213Z" fill="#DDDDDD"/>
<path d="M211.703 28.7849C213.024 28.7849 213.91 27.8592 213.91 27.8592C213.433 28.7989 212.452 29.4254 210.79 29.4254C208.31 29.4254 207.316 27.9683 207.316 26.1699C207.316 24.3715 208.365 22.9129 210.79 22.9129C213.093 22.9129 214.146 24.1939 214.265 25.8426V26.1699H209.482C209.482 27.7907 210.123 28.4074 210.79 28.6353C211.084 28.7348 211.392 28.7854 211.703 28.7849ZM209.482 25.8482H212.111C212.071 24.3771 211.729 23.2318 210.79 23.2318C209.85 23.2318 209.523 24.3715 209.482 25.8426V25.8482Z" fill="#DDDDDD"/>
<path d="M219.945 29.3443V26.1699C219.945 24.9574 219.836 23.6765 218.759 23.6765H218.646C217.667 23.745 217.351 24.9029 217.351 26.1559V29.3443H215.199V23.0094H217.351V24.4526C217.719 23.4178 218.428 22.9143 219.558 22.9143C221.574 22.9143 222.092 24.3729 222.092 26.1713V29.3457L219.945 29.3443Z" fill="#DDDDDD"/>
<path d="M227.642 28.7849C228.465 28.7676 229.25 28.4364 229.836 27.8592C229.359 28.7989 228.378 29.4254 226.716 29.4254C224.237 29.4254 223.243 27.9683 223.243 26.1699C223.243 24.3715 224.292 22.9129 226.716 22.9129C228.596 22.9129 229.645 23.7716 230.027 24.984L228.016 25.4525C227.934 24.1855 227.567 23.2318 226.722 23.2318C225.728 23.2318 225.414 24.5533 225.414 26.1685C225.414 27.7837 226.055 28.4158 226.722 28.6339C227.019 28.7333 227.329 28.7843 227.642 28.7849Z" fill="#DDDDDD"/>
<path d="M237.683 23.0094V29.0576C237.683 31.0462 236.424 32.2321 234.496 32.2321H232.302V30.0799C232.923 30.8689 233.761 31.4602 234.713 31.7818C234.787 31.8091 234.866 31.8233 234.945 31.8237C235.258 31.8237 235.517 31.6056 235.517 31.1427V27.8857C235.149 28.9346 234.454 29.4394 233.31 29.4394C231.293 29.4394 230.776 27.9808 230.776 26.1825V23.0094H232.928V26.1825C232.928 27.3949 233.037 28.6759 234.114 28.6759H234.223C235.202 28.6087 235.517 27.4368 235.517 26.1825V23.0094H237.683Z" fill="#DDDDDD"/>
</svg>
