<svg width="157" height="24" viewBox="0 0 157 24" fill="none" xmlns="http://www.w3.org/2000/svg">
<path fill-rule="evenodd" clip-rule="evenodd" d="M5.35948 15.5589H9.79713L12.0051 19.3509L5.35948 15.5589Z" fill="#616161"/>
<path fill-rule="evenodd" clip-rule="evenodd" d="M18.8824 14.8353L14.0908 23.0734H4.8372L0.447266 15.5589L5.35948 15.5589L12.0051 19.3509L0.736168 0H16.0402L16.0966 0.0205758L16.0758 0H16.0402L16.0966 0.0205758L16.5746 0.492967C16.5 0.522116 16.4263 0.552123 16.3525 0.583844C9.69909 3.42676 11.0161 13.2329 18.2378 14.1983L18.8824 14.8353Z" fill="#616161"/>
<path d="M29.2352 4.04833V13.7953C29.2352 16.7326 28.221 19.1108 23.8562 19.1108H20.6071V15.3531C22.0933 16.6666 24.5702 18.0237 26.1917 18.0237C26.799 18.0237 27.2953 17.8454 27.566 17.3781C27.6883 17.1766 27.7508 16.9452 27.7464 16.7103C27.7464 15.42 25.6738 14.4409 25.6738 14.4409V4.04833H29.2352Z" fill="#616161"/>
<path d="M45.4467 11.5474C45.4467 17.0223 42.339 19.2257 38.5104 19.2257C34.6601 19.2257 31.5516 17.0223 31.5516 11.5474C31.5516 6.20623 34.6601 3.87 38.5104 3.87C42.3356 3.87 45.4467 6.07163 45.4467 11.5474ZM41.7083 11.5474C41.7083 6.45143 40.6499 4.38183 38.5104 4.38183C36.371 4.38183 35.29 6.56288 35.29 11.5474C35.29 16.6443 36.3719 18.6916 38.5104 18.6916C40.649 18.6916 41.7083 16.6443 41.7083 11.5474Z" fill="#616161"/>
<path d="M58.0387 15.642C58.7995 15.6415 59.5566 15.5367 60.2883 15.3308V19.1142H58.0821C52.7448 19.1142 52.3396 11.147 52.3396 11.147C52.3396 11.147 56.6402 10.8135 56.6402 7.56425C56.6402 6.18394 56.1673 4.58244 52.042 4.58244H51.3211V19.1142H47.764V4.04833H53.4162C56.366 4.04833 60.2849 4.15892 60.2849 7.49738C60.2849 10.9464 52.8992 11.592 52.8992 11.592C53.713 14.9527 56.1673 15.642 58.0387 15.642Z" fill="#616161"/>
<path d="M75.6262 11.5474C75.6262 17.0223 72.5177 19.2257 68.6674 19.2257C66.6624 19.2257 66.1002 18.5578 64.8162 18.5578C63.9144 18.552 63.0224 18.742 62.2031 19.1142V4.04833H68.8461C69.3973 4.04823 69.9476 4.09412 70.491 4.1855C73.4859 4.73762 75.6262 6.89639 75.6262 11.5474ZM68.6674 18.6916C70.8059 18.6916 71.8652 16.6443 71.8652 11.5474C71.8652 6.45057 70.8788 4.58244 68.2839 4.58244H65.7844V15.5752C65.7844 18.4687 67.7208 18.6916 68.4193 18.6916H68.6674Z" fill="#616161"/>
<path d="M81.1223 19.1142H77.5409V4.04833H81.1223V19.1142Z" fill="#616161"/>
<path d="M94.8595 7.56425C94.8595 7.56425 92.7877 4.58244 88.4186 4.58244L92.8103 9.92277L92.8328 9.94506C87.6977 9.94506 86.0319 11.4805 86.0319 13.1275C86.0357 13.2693 86.0508 13.4106 86.077 13.5501C86.392 15.5092 88.7786 15.7535 90.558 15.7792H90.6257C92.72 15.7792 94.8595 14.8001 94.8595 14.8001V18.7602C93.3626 19.1195 91.8286 19.3062 90.2882 19.3166H90.0175C86.6392 19.2728 83.2843 18.226 83.1038 14.777V14.5327C83.1038 11.7283 86.0987 10.5932 88.3093 10.0591L83.3719 4.04833H94.8569L94.8595 7.56425Z" fill="#616161"/>
<path d="M100.333 5.80586C100.333 6.20623 100.22 8.72079 97.3147 9.56698C97.6659 9.33366 97.9648 9.03155 98.193 8.67939C98.4212 8.32722 98.5738 7.93249 98.6413 7.51967H98.5545C98.2026 7.51967 97.8585 7.41654 97.5659 7.22333C97.2733 7.03011 97.0452 6.75549 96.9105 6.43418C96.7759 6.11288 96.7406 5.75933 96.8093 5.41823C96.8779 5.07714 97.0474 4.76382 97.2963 4.51791C97.5451 4.27199 97.8622 4.10452 98.2074 4.03667C98.5525 3.96883 98.9103 4.00365 99.2355 4.13674C99.5606 4.26982 99.8385 4.4952 100.034 4.78437C100.23 5.07353 100.334 5.4135 100.334 5.76128L100.333 5.80586Z" fill="#616161"/>
<path d="M107.877 19.2257C105.806 19.2257 104.567 19.0474 102.382 18.6916V14.2849C103.35 16.021 105.265 18.6916 107.877 18.6916H107.945C109.522 18.6693 111.21 17.8454 111.21 16.243C111.213 16.1314 111.206 16.0198 111.188 15.9095C111.03 14.7744 110.242 14.3295 109.476 13.7731L104.117 10.1234C103.171 9.47782 102.381 8.38729 102.381 7.25218C102.381 4.04833 106.841 3.87 107.877 3.87C109.858 3.87 111.209 4.02604 113.236 4.47013V8.4533C111.615 5.93875 109.926 4.38097 107.877 4.38097H107.831C106.818 4.40326 105.557 4.71447 105.557 5.93875C105.557 7.02927 106.323 7.36278 106.931 7.78544L112.2 11.3691C113.484 12.2367 114.272 13.2158 114.272 14.9296C114.273 18.1352 110.174 19.2257 107.877 19.2257Z" fill="#616161"/>
<path d="M121.922 10.168C123.027 10.168 123.917 9.38608 123.917 9.38608C123.35 10.2477 122.407 10.6292 121.342 10.6292C119.618 10.6292 118.209 9.63728 118.209 7.17245C118.209 4.77192 119.618 3.71568 121.342 3.71568C122.681 3.71568 123.826 4.30638 124.272 5.72956L122.742 6.09992C122.61 4.58759 122.143 3.9463 121.342 3.9463C120.379 3.9463 119.893 4.92795 119.893 7.17245C119.893 9.46667 120.622 9.89705 121.342 10.0977C121.531 10.1461 121.726 10.1697 121.922 10.168Z" fill="#616161"/>
<path d="M127.731 5.8693C127.997 5.87142 128.262 5.8984 128.522 5.94989V7.54282C128.522 7.54282 127.984 6.40085 127.244 6.40085C127.197 6.39932 127.149 6.40248 127.102 6.41028C126.504 6.54059 126.241 7.26247 126.241 8.23383V10.5786H124.639V5.91989H126.241V6.98212C126.403 6.40085 126.717 6.14022 127.062 5.9799C127.276 5.90087 127.503 5.86332 127.731 5.8693Z" fill="#616161"/>
<path d="M132.262 10.168C133.246 10.168 133.906 9.48639 133.906 9.48639C133.551 10.1783 132.82 10.6386 131.583 10.6386C129.739 10.6386 128.998 9.56698 128.998 8.24411C128.998 6.92125 129.779 5.84958 131.583 5.84958C133.297 5.84958 134.077 6.79265 134.168 8.00406V8.24411H130.611C130.611 9.43666 131.088 9.88762 131.584 10.0574C131.802 10.1307 132.032 10.1681 132.262 10.168ZM132.563 8.00406C132.533 6.92211 132.28 6.08021 131.58 6.08021C130.88 6.08021 130.641 6.92211 130.611 8.00406H132.563Z" fill="#616161"/>
<path d="M140.1 5.91988V10.5786H138.487V9.52668C138.194 10.198 137.636 10.6412 136.764 10.6412C135.426 10.6412 134.797 9.56955 134.797 8.24669C134.797 6.92382 135.385 5.85216 136.764 5.85216C137.423 5.85216 137.829 6.1325 138.244 6.56374C138.299 6.62449 138.366 6.6736 138.44 6.70809C138.515 6.74258 138.596 6.76172 138.678 6.76436C138.776 6.76716 138.871 6.7389 138.951 6.68377L140.1 5.91988ZM138.487 8.24411C138.487 7.32248 138.173 6.52087 137.446 6.41028C137.413 6.40247 137.379 6.3993 137.345 6.40085C136.726 6.40085 136.412 7.37221 136.412 8.24411C136.412 9.13574 136.706 10.0445 137.375 10.0445H137.446C138.176 9.9845 138.487 9.17261 138.487 8.25097V8.24411Z" fill="#616161"/>
<path d="M143.861 6.15737H142.847V10.5761H141.245V6.15737H140.505V5.91731H141.245V4.85765L142.847 3.78598V5.91989H143.861V6.15737Z" fill="#616161"/>
<path d="M144.337 4.58759C144.336 4.43007 144.383 4.27578 144.47 4.14425C144.558 4.01271 144.683 3.90983 144.83 3.84861C144.977 3.78739 145.139 3.77058 145.295 3.80032C145.452 3.83005 145.596 3.90499 145.71 4.01565C145.823 4.12632 145.901 4.26774 145.933 4.42203C145.965 4.57633 145.95 4.73657 145.89 4.88249C145.83 5.02841 145.727 5.15346 145.595 5.24182C145.463 5.33018 145.308 5.37789 145.149 5.37891C144.935 5.37848 144.731 5.2953 144.579 5.14728C144.427 4.99926 144.341 4.79826 144.337 4.58759ZM144.337 5.91989H145.949V10.5786H144.337V5.91989Z" fill="#616161"/>
<path d="M151.637 5.91989L149.853 10.5786H148.241L146.466 5.91989H148.18L149.781 10.108L150.389 8.50474L150.399 8.49446C150.541 8.13663 150.617 7.75648 150.622 7.37221C150.622 6.34341 149.963 5.91989 149.963 5.91989H151.637Z" fill="#616161"/>
<path d="M155.094 10.168C156.077 10.168 156.736 9.48639 156.736 9.48639C156.381 10.1783 155.651 10.6386 154.414 10.6386C152.569 10.6386 151.829 9.56698 151.829 8.24411C151.829 6.92125 152.61 5.84958 154.414 5.84958C156.128 5.84958 156.909 6.79265 157 8.00406V8.24411H153.443C153.443 9.43666 153.92 9.88762 154.416 10.0574C154.634 10.1306 154.863 10.168 155.094 10.168ZM155.402 8.00406C155.372 6.92211 155.119 6.08021 154.419 6.08021C153.718 6.08021 153.472 6.92211 153.441 8.00406H155.402Z" fill="#616161"/>
<path d="M119.09 14.9956C119.027 15.1554 118.993 15.3248 118.989 15.4963C118.989 15.8727 119.225 16.1144 119.8 16.123C120.029 16.1189 120.256 16.0852 120.476 16.0227V17.4424H119.8C118.963 17.4424 118.406 17.0584 118.406 16.3819C118.407 16.2495 118.424 16.1177 118.456 15.9893C118.482 15.8948 118.516 15.8025 118.557 15.7132L119.772 12.8489C119.841 12.6815 119.878 12.5031 119.882 12.3224C119.881 12.1406 119.849 11.9602 119.789 11.7883H121.301L123.246 17.4424H121.733L120.084 12.6482L119.09 14.9956Z" fill="#616161"/>
<path d="M127.897 13.5759V17.2838C127.897 18.503 127.128 19.23 125.928 19.23H124.558V17.9105C124.946 18.3958 125.469 18.7585 126.063 18.9539C126.109 18.9707 126.158 18.9794 126.207 18.9796C126.392 18.9796 126.562 18.8459 126.562 18.5621V16.5825C126.317 17.1415 125.843 17.5093 125.116 17.5093C124.009 17.5093 123.485 16.616 123.485 15.5134C123.485 14.4109 123.967 13.5167 125.116 13.5167C125.665 13.5167 126.012 13.7508 126.351 14.11C126.396 14.1618 126.452 14.2039 126.514 14.2334C126.577 14.2629 126.645 14.2793 126.714 14.2815C126.796 14.2836 126.875 14.2602 126.942 14.2146L127.897 13.5759ZM125.691 17.0163C126.291 16.958 126.559 16.2816 126.559 15.5134V15.5023C126.559 14.7418 126.288 14.074 125.691 13.9822C125.663 13.975 125.634 13.9721 125.605 13.9737C125.084 13.9737 124.819 14.7839 124.819 15.5109C124.819 16.2542 125.064 17.0138 125.631 17.0138L125.691 17.0163Z" fill="#616161"/>
<path d="M131.379 17.1167C132.199 17.1167 132.748 16.5491 132.748 16.5491C132.452 17.1252 131.844 17.5093 130.813 17.5093C129.274 17.5093 128.658 16.616 128.658 15.5134C128.658 14.4109 129.308 13.5167 130.813 13.5167C132.242 13.5167 132.895 14.302 132.969 15.3128V15.5134H130.002C130.002 16.5071 130.399 16.8852 130.813 17.0249C130.995 17.0859 131.187 17.1169 131.379 17.1167ZM130.002 15.3163H131.633C131.607 14.4143 131.396 13.7122 130.813 13.7122C130.23 13.7122 130.027 14.4109 130.002 15.3128V15.3163Z" fill="#616161"/>
<path d="M136.493 17.4596V15.5134C136.493 14.7701 136.425 13.9848 135.757 13.9848H135.687C135.079 14.0268 134.883 14.7367 134.883 15.5049V17.4596H133.548V13.5759H134.883V14.4606C135.112 13.8262 135.551 13.5176 136.252 13.5176C137.503 13.5176 137.824 14.4118 137.824 15.5143V17.4604L136.493 17.4596Z" fill="#616161"/>
<path d="M141.268 17.1167C141.778 17.106 142.265 16.903 142.629 16.5491C142.333 17.1252 141.724 17.5093 140.694 17.5093C139.155 17.5093 138.538 16.616 138.538 15.5134C138.538 14.4109 139.189 13.5167 140.694 13.5167C141.86 13.5167 142.51 14.0431 142.747 14.7864L141.5 15.0736C141.449 14.2969 141.221 13.7122 140.697 13.7122C140.08 13.7122 139.886 14.5224 139.886 15.5126C139.886 16.5028 140.283 16.8903 140.697 17.0241C140.881 17.085 141.074 17.1163 141.268 17.1167Z" fill="#616161"/>
<path d="M147.497 13.5759V17.2838C147.497 18.503 146.716 19.23 145.52 19.23H144.159V17.9105C144.544 18.3943 145.064 18.7568 145.654 18.9539C145.7 18.9707 145.749 18.9794 145.798 18.9796C145.993 18.9796 146.153 18.8459 146.153 18.5621V16.5654C145.925 17.2084 145.494 17.5179 144.784 17.5179C143.533 17.5179 143.212 16.6237 143.212 15.5212V13.5759H144.547V15.5212C144.547 16.2645 144.615 17.0498 145.283 17.0498H145.351C145.958 17.0086 146.153 16.2902 146.153 15.5212V13.5759H147.497Z" fill="#616161"/>
</svg>
