<?xml version="1.0" encoding="UTF-8"?>
<svg version="1.1" xmlns="http://www.w3.org/2000/svg" width="120" height="120">
<path d="M0 0 C39.6 0 79.2 0 120 0 C120 39.6 120 79.2 120 120 C80.4 120 40.8 120 0 120 C0 80.4 0 40.8 0 0 Z " fill="#7E5BFE" transform="translate(0,0)"/>
<path d="M0 0 C13.2 0 26.4 0 40 0 C40 0.66 40 1.32 40 2 C39.0925 2.53625 38.185 3.0725 37.25 3.625 C33.21065055 6.22856173 31.39863759 9.45247443 30 14 C28.9694564 20.06768662 29.5967956 25.08102743 33.15625 30.171875 C36.7934504 33.77825167 41.39314976 35.87003772 46 38 C45.35571752 41.11968359 44.27757123 43.55873453 42.71484375 46.328125 C42.26689453 47.12734375 41.81894531 47.9265625 41.35742188 48.75 C40.88884766 49.575 40.42027344 50.4 39.9375 51.25 C39.46505859 52.09046875 38.99261719 52.9309375 38.50585938 53.796875 C37.34142039 55.86698876 36.1726855 57.93455014 35 60 C13.61053379 62.70118402 13.61053379 62.70118402 7.83447266 58.37988281 C3.62838349 53.34689442 0 46.65990728 0 40 C7.26 40 14.52 40 22 40 C19.33169002 34.51090518 16.60950967 29.24815879 13.3125 24.1171875 C10.67349116 19.86021491 8.37369813 15.40829652 6 11 C4.02 7.37 2.04 3.74 0 0 Z " fill="#FDFDFE" transform="translate(37,30)"/>
<path d="M0 0 C1.0703125 2.06640625 1.0703125 2.06640625 2.125 4.5625 C2.47820313 5.38878906 2.83140625 6.21507813 3.1953125 7.06640625 C3.46085937 7.70449219 3.72640625 8.34257813 4 9 C0.28505387 7.97838981 -2.44790329 6.71341694 -5.5 4.4375 C-11.06726897 0.74048545 -17.5168263 1.10016139 -24 1 C-24 0.67 -24 0.34 -24 0 C-20.3754207 -0.19632025 -16.75032733 -0.38055978 -13.125 -0.5625 C-12.09246094 -0.61857422 -11.05992188 -0.67464844 -9.99609375 -0.73242188 C-8.51689453 -0.80493164 -8.51689453 -0.80493164 -7.0078125 -0.87890625 C-6.09660645 -0.9260376 -5.18540039 -0.97316895 -4.24658203 -1.02172852 C-2 -1 -2 -1 0 0 Z " fill="#C5C1D8" transform="translate(61,70)"/>
</svg>
